#!OML:ASF H:\Dans Jumps\Project 1\Capture day 1\Session 1\subject.ASF
:FULLY-SPECIFIED
:DEGREES
284
root 0.559516 15.01 -16.2967 28.3026 -2.39881 -3.36424
lowerback 23.5211 0.548108 -0.496297
upperback 8.42806 0.702079 2.30473
thorax -3.88627 0.289171 2.58747
lowerneck -17.3123 1.2154 -1.35723
upperneck -3.60878 1.93424 -2.39369
head 1.80194 0.904603 -0.405593
rclavicle 3.19919e-015 1.44647e-014
rhumerus -30.2225 -15.0085 -72.0743
rradius 25.2511
rwrist 30.6421
rhand -17.8574 -24.6611
rfingers 7.12502
rthumb 8.40797 -54.4737
lclavicle 3.19919e-015 1.44647e-014
lhumerus -29.8449 1.68004 81.3989
lradius 17.611
lwrist 7.38989
lhand -26.5622 -5.29011
lfingers 7.12502
lthumb 0.0027678 24.6896
rfemur -74.001 -2.39485 24.4525
rtibia 69.6823
rfoot -23.1519 -3.33451
rtoes -1.85932
lfemur -74.2467 8.21344 -21.5669
ltibia 70.2688
lfoot -22.0572 8.33635
ltoes -12.9602
285
root 0.560551 14.9731 -16.3035 28.5501 -2.39797 -3.37544
lowerback 23.6855 0.569564 -0.533459
upperback 8.44516 0.721301 2.30091
thorax -3.95037 0.29811 2.60005
lowerneck -17.3178 1.19818 -1.3699
upperneck -3.81578 1.90823 -2.37398
head 1.73178 0.895394 -0.399396
rclavicle -2.38542e-015 3.80424e-014
rhumerus -30.4635 -15.2077 -71.9201
rradius 25.1506
rwrist 30.8426
rhand -17.7695 -24.6002
rfingers 7.12502
rthumb 8.49275 -54.4094
lclavicle -2.38542e-015 3.80424e-014
lhumerus -30.0161 1.86333 81.2636
lradius 17.4616
lwrist 7.14357
lhand -26.4802 -5.25964
lfingers 7.12502
lthumb 0.0819139 24.7201
rfemur -74.5824 -2.35868 24.4715
rtibia 70.1322
rfoot -23.2529 -3.39957
rtoes -1.94139
lfemur -74.8288 8.19039 -21.5964
ltibia 70.7232
lfoot -22.1554 8.41585
ltoes -13.0303
286
root 0.561606 14.9376 -16.3096 28.7859 -2.39331 -3.37155
lowerback 23.851 0.58784 -0.575846
upperback 8.45912 0.73522 2.29512
thorax -4.01805 0.304558 2.61485
lowerneck -17.3005 1.19386 -1.33382
upperneck -4.03393 1.89047 -2.41069
head 1.65534 0.888281 -0.419375
rclavicle 6.21202e-017 -8.75895e-015
rhumerus -30.6972 -15.4146 -71.7624
rradius 25.0405
rwrist 31.0727
rhand -17.7093 -24.5246
rfingers 7.12502
rthumb 8.5509 -54.3315
lclavicle 6.21202e-017 -8.75895e-015
lhumerus -30.1813 2.03865 81.1327
lradius 17.3111
lwrist 6.90087
lhand -26.5378 -5.34839
lfingers 7.12502
lthumb 0.0263475 24.6314
rfemur -75.1405 -2.32807 24.4714
rtibia 70.5679
rfoot -23.3513 -3.47341
rtoes -2.02137
lfemur -75.3826 8.15766 -21.6385
ltibia 71.1545
lfoot -22.2483 8.492
ltoes -13.0978
287
root 0.562706 14.9032 -16.3149 29.015 -2.38413 -3.35728
lowerback 24.0116 0.603124 -0.618317
upperback 8.46879 0.745247 2.28861
thorax -4.08774 0.309248 2.62992
lowerneck -17.2764 1.1985 -1.26066
upperneck -4.24717 1.87828 -2.49226
head 1.58067 0.882088 -0.459744
rclavicle -1.22998e-015 1.39149e-014
rhumerus -30.9257 -15.6237 -71.6001
rradius 24.9221
rwrist 31.3224
rhand -17.6914 -24.4366
rfingers 7.12502
rthumb 8.56813 -54.2428
lclavicle -1.22998e-015 1.39149e-014
lhumerus -30.3398 2.19539 81.0103
lradius 17.1623
lwrist 6.68124
lhand -26.7456 -5.57461
lfingers 7.12502
lthumb -0.174408 24.4051
rfemur -75.6814 -2.30112 24.4578
rtibia 70.9895
rfoot -23.4455 -3.56041
rtoes -2.10979
lfemur -75.9165 8.11819 -21.6905
ltibia 71.5649
lfoot -22.3358 8.56259
ltoes -13.1598
288
root 0.563914 14.8701 -16.3195 29.2381 -2.36537 -3.3385
lowerback 24.1748 0.613218 -0.654587
upperback 8.47554 0.750071 2.28253
thorax -4.16143 0.311593 2.64329
lowerneck -17.2463 1.21037 -1.16392
upperneck -4.46426 1.87129 -2.60122
head 1.50453 0.877483 -0.512562
rclavicle 0 -1.6934e-014
rhumerus -31.1425 -15.824 -71.4454
rradius 24.8068
rwrist 31.5723
rhand -17.6894 -24.3484
rfingers 7.12502
rthumb 8.57008 -54.1545
lclavicle 0 -1.6934e-014
lhumerus -30.4872 2.34949 80.8895
lradius 17.0194
lwrist 6.4721
lhand -26.8987 -5.74389
lfingers 7.12502
lthumb -0.322221 24.2356
rfemur -76.2023 -2.27806 24.4376
rtibia 71.3958
rfoot -23.5393 -3.65752
rtoes -2.19245
lfemur -76.4304 8.06888 -21.7422
ltibia 71.955
lfoot -22.4188 8.62971
ltoes -13.2137
289
root 0.565076 14.8381 -16.3234 29.459 -2.34039 -3.3227
lowerback 24.3391 0.62145 -0.682646
upperback 8.47716 0.754493 2.27858
thorax -4.24111 0.313931 2.65437
lowerneck -17.2235 1.21765 -1.08404
upperneck -4.66161 1.86156 -2.69214
head 1.43605 0.871928 -0.556666
rclavicle -2.33572e-015 -8.87077e-015
rhumerus -31.3511 -16.0041 -71.3013
rradius 24.6988
rwrist 31.8029
rhand -17.7081 -24.26
rfingers 7.12502
rthumb 8.55207 -54.0668
lclavicle -2.33572e-015 -8.87077e-015
lhumerus -30.629 2.51677 80.765
lradius 16.8913
lwrist 6.26455
lhand -26.9394 -5.79726
lfingers 7.12502
lthumb -0.361565 24.1822
rfemur -76.7071 -2.25026 24.4164
rtibia 71.7862
rfoot -23.632 -3.76654
rtoes -2.27576
lfemur -76.931 8.0181 -21.7886
ltibia 72.3275
lfoot -22.4969 8.69457
ltoes -13.2647
290
root 0.566171 14.8073 -16.3267 29.678 -2.31277 -3.31662
lowerback 24.5041 0.629603 -0.701431
upperback 8.47689 0.760988 2.27747
thorax -4.32318 0.317364 2.66265
lowerneck -17.2138 1.21848 -1.03265
upperneck -4.83997 1.84877 -2.75143
head 1.37558 0.865787 -0.585746
rclavicle -8.07563e-015 -5.77718e-015
rhumerus -31.5422 -16.169 -71.1721
rradius 24.5967
rwrist 32.0158
rhand -17.7252 -24.182
rfingers 7.12502
rthumb 8.53557 -53.9895
lclavicle -8.07563e-015 -5.77718e-015
lhumerus -30.7587 2.70117 80.6346
lradius 16.7785
lwrist 6.069
lhand -26.8656 -5.74585
lfingers 7.12502
lthumb -0.290317 24.2337
rfemur -77.1939 -2.21145 24.4002
rtibia 72.1589
rfoot -23.7226 -3.88743
rtoes -2.3569
lfemur -77.4193 7.97264 -21.8246
ltibia 72.6844
lfoot -22.5698 8.76053
ltoes -13.3274
291
root 0.567096 14.7778 -16.3292 29.8912 -2.29094 -3.31543
lowerback 24.6659 0.642102 -0.721651
upperback 8.47659 0.772672 2.27865
thorax -4.40387 0.32324 2.67279
lowerneck -17.2343 1.20726 -1.02479
upperneck -4.97873 1.82911 -2.76334
head 1.33239 0.857345 -0.592357
rclavicle 6.75868e-015 2.46493e-014
rhumerus -31.7189 -16.3152 -71.0558
rradius 24.5069
rwrist 32.1886
rhand -17.7328 -24.1062
rfingers 7.12502
rthumb 8.52821 -53.914
lclavicle 6.75868e-015 2.46493e-014
lhumerus -30.8798 2.89158 80.5048
lradius 16.6852
lwrist 5.90598
lhand -26.7862 -5.69399
lfingers 7.12502
lthumb -0.213638 24.2856
rfemur -77.6599 -2.15881 24.3811
rtibia 72.5153
rfoot -23.8143 -4.01644
rtoes -2.43711
lfemur -77.8905 7.93782 -21.8584
ltibia 73.0275
lfoot -22.642 8.82775
ltoes -13.3946
292
root 0.567786 14.7493 -16.3313 30.1046 -2.2732 -3.32416
lowerback 24.8245 0.658039 -0.741668
upperback 8.4748 0.788913 2.28402
thorax -4.4849 0.331262 2.68609
lowerneck -17.2681 1.18791 -1.05372
upperneck -5.09967 1.80584 -2.73689
head 1.2965 0.848355 -0.5805
rclavicle -3.35449e-015 -6.63444e-015
rhumerus -31.8751 -16.4284 -70.9608
rradius 24.4303
rwrist 32.3175
rhand -17.7317 -24.0417
rfingers 7.12502
rthumb 8.5293 -53.8495
lclavicle -3.35449e-015 -6.63444e-015
lhumerus -30.9894 3.10995 80.3686
lradius 16.6041
lwrist 5.74788
lhand -26.7344 -5.66392
lfingers 7.12502
lthumb -0.163515 24.3158
rfemur -78.1125 -2.08982 24.3648
rtibia 72.8552
rfoot -23.9056 -4.15247
rtoes -2.51075
lfemur -78.3531 7.91272 -21.8826
ltibia 73.3589
lfoot -22.7123 8.89653
ltoes -13.468
293
root 0.568378 14.7221 -16.3327 30.3084 -2.26548 -3.33013
lowerback 24.976 0.678108 -0.771172
upperback 8.47569 0.808057 2.29016
thorax -4.55965 0.340513 2.70479
lowerneck -17.3357 1.16221 -1.11251
upperneck -5.18273 1.78117 -2.68117
head 1.27835 0.839126 -0.554053
rclavicle 7.50412e-015 1.76546e-014
rhumerus -32.0143 -16.5271 -70.876
rradius 24.3589
rwrist 32.4109
rhand -17.7549 -23.9696
rfingers 7.12502
rthumb 8.50689 -53.7782
lclavicle 7.50412e-015 1.76546e-014
lhumerus -31.0877 3.3151 80.2444
lradius 16.5328
lwrist 5.63934
lhand -26.819 -5.74502
lfingers 7.12502
lthumb -0.245281 24.2346
rfemur -78.5425 -2.01275 24.3383
rtibia 73.1815
rfoot -24.0003 -4.2913
rtoes -2.57963
lfemur -78.7925 7.89419 -21.9113
ltibia 73.6794
lfoot -22.7867 8.9697
ltoes -13.5406
294
root 0.568808 14.6959 -16.3334 30.508 -2.26083 -3.33425
lowerback 25.1238 0.698715 -0.806001
upperback 8.47588 0.826614 2.2973
thorax -4.63336 0.34944 2.72777
lowerneck -17.4122 1.13076 -1.20038
upperneck -5.25265 1.75473 -2.59585
head 1.26542 0.830055 -0.513224
rclavicle 6.36111e-015 -1.6027e-014
rhumerus -32.1378 -16.5986 -70.8085
rradius 24.3009
rwrist 32.4667
rhand -17.7851 -23.8988
rfingers 7.12502
rthumb 8.47771 -53.7086
lclavicle 6.36111e-015 -1.6027e-014
lhumerus -31.1763 3.51794 80.1264
lradius 16.4698
lwrist 5.54746
lhand -26.927 -5.82445
lfingers 7.12502
lthumb -0.349615 24.155
rfemur -78.9569 -1.93148 24.3053
rtibia 73.4948
rfoot -24.098 -4.43276
rtoes -2.64167
lfemur -79.2151 7.87435 -21.9383
ltibia 73.9892
lfoot -22.8631 9.04932
ltoes -13.6105
295
root 0.569063 14.6705 -16.3333 30.7044 -2.2586 -3.33491
lowerback 25.263 0.718442 -0.847484
upperback 8.47608 0.842509 2.30608
thorax -4.70271 0.357012 2.75708
lowerneck -17.4765 1.10985 -1.26543
upperneck -5.3379 1.73786 -2.5425
head 1.24608 0.824901 -0.486039
rclavicle 6.60959e-015 1.55301e-014
rhumerus -32.2474 -16.636 -70.7565
rradius 24.2605
rwrist 32.4953
rhand -17.8137 -23.8389
rfingers 7.12502
rthumb 8.45014 -53.6498
lclavicle 6.60959e-015 1.55301e-014
lhumerus -31.2541 3.71493 80.0195
lradius 16.4105
lwrist 5.46523
lhand -27.0883 -5.94707
lfingers 7.12502
lthumb -0.505418 24.0321
rfemur -79.3585 -1.84842 24.2662
rtibia 73.7966
rfoot -24.1953 -4.58872
rtoes -2.74684
lfemur -79.6217 7.85097 -21.9647
ltibia 74.2887
lfoot -22.9417 9.1359
ltoes -13.6746
296
root 0.569238 14.6464 -16.3322 30.8917 -2.25286 -3.33338
lowerback 25.4011 0.734386 -0.88784
upperback 8.47636 0.853849 2.31562
thorax -4.77111 0.362423 2.78785
lowerneck -17.5149 1.10324 -1.29407
upperneck -5.45257 1.7323 -2.53287
head 1.21349 0.824308 -0.478555
rclavicle 1.22004e-014 -3.23025e-015
rhumerus -32.3438 -16.6616 -70.7139
rradius 24.2318
rwrist 32.5125
rhand -17.8272 -23.7736
rfingers 7.12502
rthumb 8.43712 -53.5851
lclavicle 1.22004e-014 -3.23025e-015
lhumerus -31.3235 3.88075 79.931
lradius 16.3545
lwrist 5.40489
lhand -27.2165 -6.04824
lfingers 7.12502
lthumb -0.629159 23.9306
rfemur -79.7376 -1.76895 24.2245
rtibia 74.0862
rfoot -24.3007 -4.74963
rtoes -2.83498
lfemur -80.0037 7.81858 -21.9848
ltibia 74.5765
lfoot -23.0247 9.23099
ltoes -13.7209
297
root 0.569248 14.6232 -16.33 31.0711 -2.24536 -3.32954
lowerback 25.5381 0.748376 -0.927906
upperback 8.47436 0.862759 2.32532
thorax -4.84128 0.36675 2.81933
lowerneck -17.5237 1.11248 -1.27379
upperneck -5.59629 1.73762 -2.57933
head 1.16748 0.827528 -0.496876
rclavicle 6.28657e-015 -5.29264e-015
rhumerus -32.4332 -16.6745 -70.6785
rradius 24.2174
rwrist 32.5157
rhand -17.8244 -23.699
rfingers 7.12502
rthumb 8.43984 -53.5104
lclavicle 6.28657e-015 -5.29264e-015
lhumerus -31.3904 4.01471 79.8599
lradius 16.3044
lwrist 5.35193
lhand -27.3217 -6.15411
lfingers 7.12502
lthumb -0.730808 23.8244
rfemur -80.0971 -1.6916 24.1796
rtibia 74.3661
rfoot -24.415 -4.91681
rtoes -2.90732
lfemur -80.3647 7.77942 -22.0014
ltibia 74.854
lfoot -23.112 9.33961
ltoes -13.7598
